<svg xmlns="http://www.w3.org/2000/svg" width="1920" height="1080" viewBox="0 0 1920 1080"><defs><linearGradient id="bg" x1="0" x2="1" y1="0" y2="1"><stop offset="0" stop-color="#161616"/><stop offset="1" stop-color="#000"/></linearGradient><linearGradient id="red" x1="0" x2="1" y1="0" y2="1"><stop offset="0" stop-color="#FF2A33"/><stop offset="1" stop-color="#B00610"/></linearGradient><radialGradient id="glow" cx="50%" cy="42%" r="58%"><stop offset="0" stop-color="#E50914" stop-opacity=".2"/><stop offset="1" stop-color="#E50914" stop-opacity="0"/></radialGradient><pattern id="grid" width="60" height="60" patternUnits="userSpaceOnUse"><path fill="none" stroke="#E50914" stroke-width="1.2" d="M60 0H0V60" opacity=".05"/></pattern></defs><rect width="1920" height="1080" fill="url(#bg)"/><rect width="1920" height="1080" fill="url(#grid)"/><rect width="1920" height="1080" fill="url(#glow)"/><g transform="translate(960,392)"><polygon fill="none" stroke="url(#red)" stroke-linejoin="round" stroke-width="11" points="0 -118 102 -59 102 59 0 118 -102 59 -102 -59"/><g fill="#FFF" transform="translate(-45,-59)"><rect width="90" height="21" x="0" y="0" rx="3"/><rect width="21" height="118" x="0" y="0" rx="3"/><rect width="70" height="20" x="0" y="48" rx="3"/><rect width="90" height="21" x="0" y="97" rx="3"/></g><circle cx="0" cy="0" r="4.2" fill="#E50914"/></g><text x="960" y="640" fill="#FFF" font-family="DejaVu Sans, sans-serif" font-size="150" font-weight="bold" letter-spacing="6" text-anchor="middle">E<tspan fill="#E50914">-</tspan>OS</text><rect width="200" height="6" x="860" y="672" fill="url(#red)" rx="3"/><text x="960" y="730" fill="#E50914" font-family="DejaVu Sans Mono, monospace" font-size="33" letter-spacing="3" text-anchor="middle">The Rust-native operating system</text><text x="960" y="1016" fill="#8a9097" font-family="DejaVu Sans Mono, monospace" font-size="26" text-anchor="middle">AGPL-3.0 . built on Redox OS . v0.1.0 &quot;Genesis&quot;</text></svg>